<?xml version="1.0" standalone="no"?><!DOCTYPE svg PUBLIC "-//W3C//DTD SVG 1.1//EN" "http://www.w3.org/Graphics/SVG/1.1/DTD/svg11.dtd"><svg t="1768830309979" class="icon" viewBox="0 0 1024 1024" version="1.1" xmlns="http://www.w3.org/2000/svg" p-id="17304" xmlns:xlink="http://www.w3.org/1999/xlink" width="200" height="200"><path d="M960 512c0 65.7-13.9 128.4-41.8 188.2s-65.7 110.5-113.5 152.3l-41.8 29.9c-75.7 51.8-159.3 77.7-250.9 77.7s-175.2-25.9-250.9-77.7l-38.8-29.9c-49.8-41.8-88.6-92.6-116.5-152.3C77.9 640.5 64 577.7 64 512s19.9-156.8 59.7-225.5c39.8-68.7 94.1-123 162.8-162.8C355.2 83.9 430.4 64 512 64s156.8 19.9 225.5 59.7c68.7 39.8 123 94.1 162.8 162.8C940.1 355.2 960 430.4 960 512zM512 903.3c83.6 0 159.3-23.9 227-71.7-4-17.9-9-34.8-14.9-50.8-11.9-27.9-28.4-52.3-49.3-73.2-20.9-20.9-45.8-36.8-74.7-47.8s-58.2-16.4-88.1-16.4-40.3 2.5-61.2 7.5c-20.9 5-39.3 12.4-55.3 22.4-15.9 10-30.9 21.9-44.8 35.8-13.9 13.9-25.9 29.4-35.8 46.3-10 16.9-17.9 35.3-23.9 55.3l-3 20.9c67.7 47.8 142.4 71.7 224 71.7zM374.6 488.1c8 17.9 18.9 33.8 32.9 47.8 13.9 13.9 28.9 24.9 44.8 32.9 39.8 15.9 78.6 15.9 116.5 0 17.9-8 33.8-18.9 47.8-32.9 13.9-13.9 24.9-29.4 32.9-46.3s11.9-35.8 11.9-56.7-4-40.3-11.9-58.2c-8-17.9-18.9-33.8-32.9-47.8-13.9-13.9-29.4-24.9-46.3-32.9s-36.3-11.9-58.2-11.9-41.8 4.5-59.7 13.4c-17.9 9-33.4 19.9-46.3 32.9s-23.4 28.4-31.4 46.3-11.9 36.8-11.9 56.7 4 38.8 11.9 56.7z m415.2 298.7c37.8-35.8 66.2-77.7 85.1-125.4 18.9-47.8 28.4-97.6 28.4-149.3S885.9 374.7 851 315c-34.8-59.7-82.1-107-141.9-141.9-59.7-34.8-125.4-52.3-197.1-52.3s-137.4 17.4-197.1 52.3c-59.7 34.8-107 82.1-141.9 141.9-34.8 59.7-52.3 125.4-52.3 197.1s10 101.5 29.9 149.3c19.9 47.8 47.8 89.6 83.6 125.4v-3c10-29.9 23.4-56.7 40.3-80.6s37.3-44.8 61.2-62.7c17.9-13.9 36.8-24.9 56.7-32.9-10-8-18.9-15.9-26.9-23.9-15.9-15.9-27.9-30.9-35.8-44.8-8-13.9-14.9-30.4-20.9-49.3s-9-38.3-9-58.2 5.5-54.8 16.4-80.6c11-25.9 25.9-48.8 44.8-68.7 18.9-19.9 41.3-34.8 67.2-44.8 25.9-10 53.3-14.9 82.1-14.9s56.2 5 82.1 14.9c25.9 10 48.8 24.9 68.7 44.8 19.9 19.9 35.3 42.8 46.3 68.7 11 25.9 15.4 52.8 13.4 80.6 2 39.8-7 75.7-26.9 107.5-10 15.9-21.9 30.9-35.8 44.8s-16.9 14.9-26.9 20.9c21.9 10 41.8 21.9 59.7 35.8 23.9 17.9 44.3 38.8 61.2 62.7s29.4 49.8 37.3 77.7v6z" p-id="17305"></path></svg>