<?xml version="1.0" standalone="no"?><!DOCTYPE svg PUBLIC "-//W3C//DTD SVG 1.1//EN" "http://www.w3.org/Graphics/SVG/1.1/DTD/svg11.dtd"><svg t="1768922445163" class="icon" viewBox="0 0 1024 1024" version="1.1" xmlns="http://www.w3.org/2000/svg" p-id="13880" xmlns:xlink="http://www.w3.org/1999/xlink" width="200" height="200"><path d="M405.333333 362.666667a21.333333 21.333333 0 0 1 34.133334-17.066667l199.125333 149.333333a21.333333 21.333333 0 0 1 0 34.133334L439.466667 678.4a21.333333 21.333333 0 0 1-34.133334-17.066667v-298.666666zM554.666667 512l-85.333334-64v128l85.333334-64z" p-id="13881"></path><path d="M85.333333 256a85.333333 85.333333 0 0 1 85.333334-85.333333h682.666666a85.333333 85.333333 0 0 1 85.333334 85.333333v512a85.333333 85.333333 0 0 1-85.333334 85.333333H170.666667a85.333333 85.333333 0 0 1-85.333334-85.333333V256z m85.333334-21.333333a21.333333 21.333333 0 0 0-21.333334 21.333333v512a21.333333 21.333333 0 0 0 21.333334 21.333333h682.666666a21.333333 21.333333 0 0 0 21.333334-21.333333V256a21.333333 21.333333 0 0 0-21.333334-21.333333H170.666667z" p-id="13882"></path></svg>